<svg width="160" height="160" viewBox="0 0 160 160" fill="none" xmlns="http://www.w3.org/2000/svg">
<g clip-path="url(#clip0_559_42956)">
<path fill-rule="evenodd" clip-rule="evenodd" d="M107.226 149.754C100.372 155.09 92.5538 159.457 82.7725 160.048C81.0124 160.155 79.2474 160.155 77.4872 160.048C67.7059 159.457 59.8875 155.09 53.0335 149.754C46.6675 144.797 39.6792 137.808 31.7286 129.856C31.5082 129.636 31.2871 129.415 31.0653 129.193C30.8434 128.971 30.6223 128.75 30.4019 128.53C22.4502 120.579 15.461 113.591 10.5045 107.225C5.16792 100.371 0.801407 92.5526 0.209746 82.7713C0.103277 81.0111 0.103277 79.2462 0.209746 77.4861C0.801407 67.7048 5.16792 59.8864 10.5045 53.0324C15.461 46.6665 22.4502 39.6783 30.4019 31.7277C30.6223 31.5073 30.8434 31.2862 31.0653 31.0644C31.2871 30.8425 31.5082 30.6214 31.7286 30.401C39.6792 22.4494 46.6675 15.4602 53.0335 10.5037C59.8875 5.16717 67.7059 0.800683 77.4872 0.209025C79.2474 0.102557 81.0124 0.102553 82.7725 0.209023C92.5538 0.80068 100.372 5.16717 107.226 10.5037C113.592 15.4602 120.581 22.4494 128.531 30.4011C128.752 30.6215 128.973 30.8426 129.194 31.0644C129.416 31.2862 129.637 31.5073 129.858 31.7276C137.809 39.6783 144.799 46.6665 149.755 53.0324C155.092 59.8864 159.458 67.7048 160.05 77.4861C160.156 79.2462 160.156 81.0111 160.05 82.7713C159.458 92.5526 155.092 100.371 149.755 107.225C144.799 113.591 137.809 120.579 129.858 128.53C129.637 128.75 129.416 128.971 129.194 129.193C128.973 129.415 128.752 129.636 128.531 129.856C120.581 137.808 113.592 144.797 107.226 149.754ZM16.1931 81.8045C16.8286 92.3113 25.3484 100.831 42.3879 117.87C59.4274 134.91 67.9471 143.43 78.4541 144.065C79.5702 144.133 80.6895 144.133 81.8057 144.065C92.3126 143.43 100.832 134.91 117.872 117.87C134.911 100.831 143.431 92.3113 144.067 81.8045C144.134 80.6883 144.134 79.569 144.067 78.4529C143.431 67.946 134.911 59.4263 117.872 42.3869C100.832 25.3475 92.3126 16.8278 81.8057 16.1923C80.6895 16.1248 79.5702 16.1248 78.4541 16.1923C67.9471 16.8278 59.4274 25.3475 42.3879 42.3869C25.3484 59.4263 16.8286 67.946 16.1931 78.4529C16.1256 79.569 16.1256 80.6883 16.1931 81.8045Z" fill="#05003B"/>
<path d="M37.4272 80.1289C37.4272 78.3846 38.6614 76.8926 40.3579 76.4869C48.9623 74.4291 55.7383 71.2087 61.4273 66.1687C63.1013 64.6857 64.6841 63.1029 66.1672 61.4288C71.2072 55.7399 74.4276 48.964 76.4854 40.3595C76.8911 38.6631 78.3831 37.429 80.1274 37.429C81.8717 37.429 83.3637 38.6631 83.7694 40.3595C85.8272 48.964 89.0476 55.7399 94.0876 61.4289C95.5707 63.1029 97.1535 64.6857 98.8275 66.1687C104.517 71.2087 111.293 74.4291 119.897 76.4869C121.593 76.8926 122.828 78.3846 122.828 80.1289C122.828 81.8731 121.593 83.3652 119.897 83.7709C111.293 85.8286 104.517 89.049 98.8275 94.089C97.1535 95.572 95.5707 97.1549 94.0877 98.8289C89.0477 104.518 85.8272 111.294 83.7694 119.898C83.3637 121.595 81.8717 122.829 80.1274 122.829C78.3831 122.829 76.8911 121.595 76.4854 119.898C74.4276 111.294 71.2072 104.518 66.1672 98.8289C64.6841 97.1549 63.1013 95.572 61.4273 94.089C55.7383 89.049 48.9623 85.8286 40.3579 83.7709C38.6614 83.3652 37.4272 81.8731 37.4272 80.1289Z" fill="#05003B"/>
</g>
<defs>
<clipPath id="clip0_559_42956">
<rect width="160" height="160" fill="white"/>
</clipPath>
</defs>
</svg>
