<svg width="130" height="130" viewBox="0 0 130 130" fill="none" xmlns="http://www.w3.org/2000/svg">
<g clip-path="url(#clip0_264_3688)">
<path fill-rule="evenodd" clip-rule="evenodd" d="M36.8291 129.068C28.7541 128.063 20.683 125.776 13.812 119.689C12.5755 118.594 11.4064 117.424 10.3111 116.188C4.22388 109.317 1.9374 101.246 0.932225 93.1709C-0.00137609 85.6709 -0.000749538 76.4124 -3.71433e-05 65.8788C-1.71161e-05 65.5868 2.91101e-06 65.2939 2.91101e-06 65C2.91101e-06 64.7061 -1.71161e-05 64.4132 -3.71433e-05 64.1212C-0.000749538 53.5876 -0.00137609 44.3291 0.932225 36.8291C1.9374 28.7541 4.22388 20.683 10.3111 13.812C11.4064 12.5755 12.5755 11.4064 13.812 10.3111C20.683 4.22388 28.7541 1.9374 36.8291 0.932225C44.3291 -0.00137609 53.5876 -0.000749538 64.1212 -3.71433e-05C64.4132 -1.71161e-05 64.7061 2.91101e-06 65 2.91101e-06C65.2939 2.91101e-06 65.5868 -1.71161e-05 65.8788 -3.71433e-05C76.4124 -0.000749538 85.6709 -0.00137609 93.1709 0.932225C101.246 1.9374 109.317 4.22388 116.188 10.3111C117.424 11.4064 118.594 12.5755 119.689 13.812C125.776 20.683 128.063 28.7541 129.068 36.8291C130.001 44.3291 130.001 53.5877 130 64.1213C130 64.4132 130 64.7061 130 65C130 65.2939 130 65.5868 130 65.8787C130.001 76.4123 130.001 85.6709 129.068 93.1709C128.063 101.246 125.776 109.317 119.689 116.188C118.594 117.424 117.424 118.594 116.188 119.689C109.317 125.776 101.246 128.063 93.1709 129.068C85.6709 130.001 76.4123 130.001 65.8787 130C65.5868 130 65.2939 130 65 130C64.7061 130 64.4132 130 64.1213 130C53.5877 130.001 44.3291 130.001 36.8291 129.068ZM21.5387 23.7588C15 31.1395 15 42.4263 15 65C15 87.5737 15 98.8605 21.5387 106.241C22.2334 107.025 22.9747 107.767 23.7588 108.461C31.1395 115 42.4263 115 65 115C87.5737 115 98.8605 115 106.241 108.461C107.025 107.767 107.767 107.025 108.461 106.241C115 98.8605 115 87.5737 115 65C115 42.4263 115 31.1395 108.461 23.7588C107.767 22.9747 107.025 22.2334 106.241 21.5387C98.8605 15 87.5737 15 65 15C42.4263 15 31.1395 15 23.7588 21.5387C22.9747 22.2334 22.2334 22.9747 21.5387 23.7588Z" fill="black"/>
</g>
<defs>
<clipPath id="clip0_264_3688">
<rect width="130" height="130" fill="white"/>
</clipPath>
</defs>
</svg>
