<svg width="130" height="130" viewBox="0 0 130 130" fill="none" xmlns="http://www.w3.org/2000/svg">
<path d="M15.0002 65C15.0002 42.4263 15.0002 31.1395 21.5389 23.7588C22.2335 22.9747 22.9749 22.2334 23.759 21.5387C31.1397 15 42.4265 15 65.0002 15V15C87.5738 15 98.8607 15 106.241 21.5387C107.025 22.2334 107.767 22.9747 108.461 23.7588C115 31.1395 115 42.4263 115 65V65C115 87.5737 115 98.8605 108.461 106.241C107.767 107.025 107.025 107.767 106.241 108.461C98.8607 115 87.5738 115 65.0002 115V115C42.4265 115 31.1397 115 23.759 108.461C22.9749 107.767 22.2335 107.025 21.5389 106.241C15.0002 98.8605 15.0002 87.5737 15.0002 65V65Z" fill="black"/>
</svg>
