<svg width="130" height="130" viewBox="0 0 130 130" fill="none" xmlns="http://www.w3.org/2000/svg">
<path fill-rule="evenodd" clip-rule="evenodd" d="M36.8292 129.068C28.7542 128.063 20.6831 125.776 13.812 119.689C12.5756 118.594 11.4065 117.425 10.3111 116.188C4.22396 109.317 1.93748 101.246 0.932301 93.1709C-0.0012998 85.671 -0.000673244 76.4125 3.91506e-05 65.8789C5.91778e-05 65.5869 7.9205e-05 65.294 7.9205e-05 65.0001C7.9205e-05 64.7062 5.91778e-05 64.4132 3.91506e-05 64.1213C-0.000673244 53.5877 -0.0012998 44.3292 0.932301 36.8292C1.93748 28.7542 4.22396 20.6831 10.3111 13.812C11.4065 12.5756 12.5756 11.4065 13.812 10.3111C20.6831 4.22396 28.7542 1.93748 36.8292 0.932301C44.3292 -0.0012998 53.5877 -0.000673244 64.1213 3.91506e-05C64.4132 5.91778e-05 64.7062 7.9205e-05 65.0001 7.9205e-05C65.294 7.9205e-05 65.5869 5.91778e-05 65.8789 3.91506e-05C76.4125 -0.000673244 85.671 -0.0012998 93.1709 0.932301C101.246 1.93748 109.317 4.22396 116.188 10.3111C117.425 11.4065 118.594 12.5756 119.689 13.812C125.776 20.6831 128.063 28.7542 129.068 36.8292C130.001 44.3292 130.001 53.5878 130 64.1214C130 64.4133 130 64.7062 130 65.0001C130 65.294 130 65.5869 130 65.8788C130.001 76.4124 130.001 85.671 129.068 93.1709C128.063 101.246 125.776 109.317 119.689 116.188C118.594 117.425 117.425 118.594 116.188 119.689C109.317 125.776 101.246 128.063 93.1709 129.068C85.671 130.001 76.4124 130.001 65.8788 130C65.5869 130 65.2939 130 65.0001 130C64.7062 130 64.4133 130 64.1214 130C53.5878 130.001 44.3292 130.001 36.8292 129.068Z" fill="black"/>
</svg>
