<svg width="816" height="240" viewBox="0 0 816 240" fill="none" xmlns="http://www.w3.org/2000/svg">
<g clip-path="url(#clip0_533_3214)">
<path fill-rule="evenodd" clip-rule="evenodd" d="M147.226 189.754C140.372 195.09 132.554 199.457 122.772 200.048C121.012 200.155 119.247 200.155 117.487 200.048C107.706 199.457 99.8875 195.09 93.0335 189.754C86.6675 184.797 79.6792 177.808 71.7286 169.856C71.5082 169.636 71.2871 169.415 71.0653 169.193C70.8434 168.971 70.6223 168.75 70.4019 168.53C62.4502 160.579 55.4611 153.591 50.5045 147.225C45.1679 140.371 40.8014 132.553 40.2097 122.771C40.1033 121.011 40.1033 119.246 40.2097 117.486C40.8014 107.705 45.1679 99.8864 50.5045 93.0324C55.4611 86.6665 62.4502 79.6783 70.4019 71.7277C70.6223 71.5073 70.8434 71.2862 71.0653 71.0644C71.2871 70.8425 71.5082 70.6214 71.7286 70.401C79.6792 62.4494 86.6675 55.4602 93.0335 50.5037C99.8875 45.1672 107.706 40.8007 117.487 40.209C119.247 40.1026 121.012 40.1026 122.772 40.209C132.554 40.8007 140.372 45.1672 147.226 50.5037C153.592 55.4602 160.581 62.4494 168.531 70.4011C168.752 70.6215 168.973 70.8426 169.194 71.0644C169.416 71.2862 169.637 71.5073 169.858 71.7276C177.809 79.6783 184.799 86.6664 189.755 93.0324C195.092 99.8864 199.458 107.705 200.05 117.486C200.156 119.246 200.156 121.011 200.05 122.771C199.458 132.553 195.092 140.371 189.755 147.225C184.799 153.591 177.809 160.579 169.858 168.53C169.637 168.75 169.416 168.971 169.194 169.193C168.973 169.415 168.752 169.636 168.531 169.856C160.581 177.808 153.592 184.797 147.226 189.754ZM56.1931 121.804C56.8286 132.311 65.3484 140.831 82.3879 157.87C99.4274 174.91 107.947 183.43 118.454 184.065C119.57 184.133 120.689 184.133 121.806 184.065C132.313 183.43 140.832 174.91 157.872 157.87C174.911 140.831 183.431 132.311 184.067 121.804C184.134 120.688 184.134 119.569 184.067 118.453C183.431 107.946 174.911 99.4263 157.872 82.3869C140.832 65.3475 132.313 56.8278 121.806 56.1923C120.689 56.1248 119.57 56.1248 118.454 56.1923C107.947 56.8278 99.4274 65.3475 82.3879 82.3869C65.3484 99.4263 56.8286 107.946 56.1931 118.453C56.1256 119.569 56.1256 120.688 56.1931 121.804Z" fill="#05003B"/>
<path d="M77.4272 120.129C77.4272 118.385 78.6614 116.893 80.3579 116.487C88.9623 114.429 95.7383 111.209 101.427 106.169C103.101 104.686 104.684 103.103 106.167 101.429C111.207 95.7399 114.428 88.964 116.485 80.3595C116.891 78.6631 118.383 77.429 120.127 77.429C121.872 77.429 123.364 78.6631 123.769 80.3595C125.827 88.964 129.048 95.7399 134.088 101.429C135.571 103.103 137.154 104.686 138.828 106.169C144.517 111.209 151.293 114.429 159.897 116.487C161.593 116.893 162.828 118.385 162.828 120.129C162.828 121.873 161.593 123.365 159.897 123.771C151.293 125.829 144.517 129.049 138.828 134.089C137.154 135.572 135.571 137.155 134.088 138.829C129.048 144.518 125.827 151.294 123.769 159.898C123.364 161.595 121.872 162.829 120.127 162.829C118.383 162.829 116.891 161.595 116.485 159.898C114.428 151.294 111.207 144.518 106.167 138.829C104.684 137.155 103.101 135.572 101.427 134.089C95.7383 129.049 88.9623 125.829 80.3579 123.771C78.6614 123.365 77.4272 121.873 77.4272 120.129Z" fill="#05003B"/>
</g>
<path d="M348.287 84.887C348.287 90.1271 352.224 93.8388 358.128 93.8388C364.033 93.8388 367.86 90.1271 367.86 84.887C367.86 79.5378 364.033 76.0444 358.128 76.0444C352.224 76.0444 348.287 79.5378 348.287 84.887Z" fill="#05003B"/>
<path d="M350.255 99.6248V154.209H366.001V99.6248H350.255Z" fill="#05003B"/>
<path d="M305.224 154.209H289.478V77.7911H305.224V108.358C307.739 103.118 313.425 97.9872 321.517 97.9872C334.748 97.9872 340.762 106.502 340.762 121.349V154.209H325.016V123.096C325.016 115.236 321.517 111.197 315.503 111.197C308.723 111.197 305.224 116.655 305.224 124.515V154.209Z" fill="#05003B"/>
<path d="M259.746 154.209H244V99.6248H259.746L256.974 112.148C256.809 112.893 257.375 113.598 258.138 113.598C258.695 113.598 259.174 113.211 259.32 112.674C261.667 104.048 268.751 98.7514 276.039 98.7514C278.882 98.7514 280.631 98.9697 281.834 99.1881V113.707C280.741 113.598 277.132 113.38 275.055 113.38C268.166 113.38 259.746 116.546 259.746 133.794V154.209Z" fill="#05003B"/>
<path d="M392.753 154.209H377.007V99.6248H392.753L392.534 108.795C395.049 103.446 400.954 97.9872 409.046 97.9872C422.277 97.9872 428.291 106.502 428.291 121.349V154.209H412.545V123.096C412.545 115.236 409.046 111.197 403.032 111.197C396.252 111.197 392.753 116.655 392.753 124.515V154.209Z" fill="#05003B"/>
<path fill-rule="evenodd" clip-rule="evenodd" d="M436.488 127.026C436.488 143.729 446.876 155.956 464.262 155.956C479.68 155.956 487.881 147.55 490.287 138.27L475.634 135.541C474.65 139.362 470.823 143.947 464.153 143.947C457.264 143.947 451.578 137.834 451.469 130.519H490.396C490.724 129.209 490.943 127.354 490.943 124.843C490.943 109.013 479.134 97.8781 464.372 97.8781C448.954 97.8781 436.488 110.214 436.488 127.026ZM475.634 121.131H452.015C452.343 114.362 457.92 109.559 464.153 109.559C470.276 109.559 475.853 114.144 475.634 121.131Z" fill="#05003B"/>
<path d="M522.123 155.956C509.767 155.956 498.286 151.698 495.989 139.035L510.642 136.851C512.391 142.528 516.328 144.93 521.905 144.93C527.044 144.93 529.778 142.528 529.778 139.362C529.778 136.633 527.7 134.777 522.123 133.685L516.984 132.594C505.831 130.301 498.832 125.17 498.832 116.109C498.832 105.302 508.236 97.8781 521.905 97.8781C534.808 97.8781 544.321 103.882 545.633 115.127L531.199 117.31C530.543 111.961 526.825 108.904 521.905 108.904C516.875 108.904 514.25 111.633 514.25 114.799C514.25 117.31 516 119.057 520.702 120.039L525.841 121.022C538.854 123.642 545.633 128.882 545.633 138.925C545.633 149.296 535.136 155.956 522.123 155.956Z" fill="#05003B"/>
<path fill-rule="evenodd" clip-rule="evenodd" d="M597.259 126.917C597.259 142.637 608.303 155.956 625.689 155.956C643.076 155.956 654.229 142.637 654.229 126.917C654.229 111.087 643.076 97.8781 625.689 97.8781C608.303 97.8781 597.259 111.087 597.259 126.917ZM638.374 126.917C638.374 136.96 632.36 141.764 625.689 141.764C619.129 141.764 613.114 136.96 613.114 126.917C613.114 116.983 619.129 111.961 625.689 111.961C632.36 111.961 638.374 116.873 638.374 126.917Z" fill="#05003B"/>
<path d="M678.787 154.209H663.041V99.6248H678.787L678.568 108.795C681.083 103.446 686.988 97.9872 695.08 97.9872C708.311 97.9872 714.325 106.502 714.325 121.349V154.209H698.579V123.096C698.579 115.236 695.08 111.197 689.066 111.197C682.286 111.197 678.787 116.655 678.787 124.515V154.209Z" fill="#05003B"/>
<path fill-rule="evenodd" clip-rule="evenodd" d="M722.522 127.026C722.522 143.729 732.91 155.956 750.296 155.956C765.714 155.956 773.915 147.55 776.321 138.27L761.668 135.541C760.684 139.362 756.857 143.947 750.187 143.947C743.298 143.947 737.612 137.834 737.503 130.519H776.43C776.758 129.209 776.977 127.354 776.977 124.843C776.977 109.013 765.168 97.8781 750.406 97.8781C734.988 97.8781 722.522 110.214 722.522 127.026ZM761.668 121.131H738.049C738.377 114.362 743.954 109.559 750.187 109.559C756.31 109.559 761.887 114.144 761.668 121.131Z" fill="#05003B"/>
<path d="M576.784 130.732V112.444H592.404V99.5272H576.784V83.3543H561.129V99.5272H549.786V112.444H561.129L561.129 129.805C561.129 129.892 561.129 129.982 561.129 130.074C561.128 130.456 561.129 131.351 561.129 131.351C561.129 132.848 561.047 134.674 561.275 136.371C561.664 139.257 562.795 143.93 566.825 147.953C570.854 151.976 575.535 153.105 578.426 153.494C580.669 153.795 583.164 153.791 584.747 153.788L591.446 153.801V139.13H585.116C581.151 139.13 579.168 139.13 577.936 137.9C576.777 136.742 576.779 134.921 576.784 131.41C576.784 131.191 576.784 130.965 576.784 130.732Z" fill="#05003B"/>
<defs>
<clipPath id="clip0_533_3214">
<rect width="160" height="160" fill="white" transform="translate(40 40)"/>
</clipPath>
</defs>
</svg>
